<svg width="108" height="110" viewBox="0 0 108 110" fill="none" xmlns="http://www.w3.org/2000/svg">
<path fill-rule="evenodd" clip-rule="evenodd" d="M14.9582 23.7602C19.0778 27.7033 22.9002 30.6527 26.8576 32.9018C25.1667 37.495 24.3138 42.8703 23.8743 47.1686C23.6263 49.5934 23.5056 51.7224 23.4467 53.2469L23.4425 53.3575H4.02646C4.38735 42.1752 8.42004 31.9206 14.9582 23.7602ZM27.8535 47.5756C28.2682 43.5205 29.0411 38.748 30.4484 34.7363C30.8712 34.9289 31.2968 35.1149 31.7258 35.2947C37.5107 37.7192 43.7922 38.9573 51.6424 39.9596V53.3575H27.4454C27.5024 51.9006 27.6183 49.8756 27.8535 47.5756ZM23.5723 58.1992C23.5459 57.8926 23.5227 57.6111 23.5026 57.3575H4.0546C4.56932 68.4463 8.69605 78.5914 15.2852 86.6434C19.3699 82.7711 23.1717 79.8755 27.1165 77.6672C25.6621 73.4704 24.7536 68.2133 24.2001 63.9882C23.8994 61.6931 23.6984 59.6596 23.5723 58.1992ZM28.1662 63.4686C28.6903 67.4693 29.5095 72.1474 30.7258 75.8535C31.0573 75.7052 31.3905 75.5608 31.7258 75.4203C37.5107 72.9958 43.7922 71.7578 51.6424 70.7555V57.3575H27.5156C27.5285 57.5145 27.5425 57.6806 27.5575 57.8553C27.6798 59.2717 27.8749 61.2449 28.1662 63.4686ZM17.9411 89.6375C21.7611 86.0053 25.2369 83.3445 28.762 81.3318C31.5941 87.0331 34.4375 91.4666 37.8925 95.5253C40.5421 98.6379 43.5263 101.5 47.0862 104.526C35.6968 102.95 25.5329 97.5388 17.9411 89.6375ZM40.9383 92.9325C43.867 96.3729 47.2721 99.533 51.6424 103.118V74.7887C44.1572 75.7639 38.4451 76.9413 33.2719 79.1094C32.9556 79.242 32.641 79.3784 32.3278 79.5189C35.0538 85.0116 37.7316 89.1655 40.9383 92.9325ZM52.7644 109.142L52.5596 108.981C23.402 108.218 0 84.3416 0 54.9999C0 25.6556 23.4062 1.77805 52.5673 1.01854L52.7334 0.882568L52.8394 1.01213C53.2253 1.00399 53.6122 0.999902 54 0.999902C54.5054 0.999902 55.0092 1.00685 55.5113 1.02064L55.6243 0.882568C55.6842 0.931619 55.744 0.98058 55.8036 1.02946C84.7921 1.9808 108 25.7801 108 54.9999C108 84.2169 84.7965 108.014 55.812 108.97C55.7393 109.027 55.6664 109.085 55.5933 109.142L55.4662 108.98C54.979 108.993 54.4903 109 54 109C53.6274 109 53.2557 108.996 52.8849 108.989L52.7644 109.142ZM61.3435 104.464C72.6311 102.803 82.6915 97.3699 90.2034 89.4864C86.478 86.0725 83.0423 83.5153 79.4923 81.5392C76.6943 87.1408 73.8781 91.516 70.4652 95.5253C67.8335 98.6168 64.8716 101.461 61.3435 104.464ZM75.9115 79.7565C73.2262 85.1318 70.5796 89.22 67.4193 92.9325C64.2552 96.6494 60.535 100.039 55.6424 103.991V74.7935C63.6545 75.8553 69.6883 77.1537 75.0405 79.3828C75.3325 79.5044 75.6228 79.6289 75.9115 79.7565ZM81.1623 77.8921C85.1151 80.0584 88.8651 82.8411 92.8459 86.4826C99.3587 78.4565 103.434 68.3725 103.945 57.3575H84.855C84.8349 57.6111 84.8117 57.8926 84.7853 58.1992C84.6593 59.6596 84.4582 61.6931 84.1575 63.9882C83.5941 68.2891 82.6628 73.6594 81.1623 77.8921ZM80.842 57.3575C80.8291 57.5145 80.8151 57.6806 80.8001 57.8553C80.6779 59.2717 80.4827 61.2449 80.1914 63.4686C79.6553 67.5608 78.8105 72.3619 77.5477 76.1064C77.2267 75.9644 76.9036 75.8257 76.5784 75.6903C70.6319 73.2136 64.0424 71.8501 55.6424 70.7591V57.3575H80.842ZM84.9151 53.3575C84.9137 53.321 84.9123 53.2841 84.9109 53.2469C84.8521 51.7224 84.7313 49.5934 84.4833 47.1686C84.0367 42.8015 83.1635 37.3225 81.4182 32.6817C85.3861 30.4755 89.1583 27.6401 93.1763 23.9288C99.6352 32.0617 103.615 42.2521 103.974 53.3575H84.9151ZM77.8206 34.4869C79.2842 38.5492 80.0808 43.4362 80.5041 47.5756C80.7393 49.8756 80.8552 51.9006 80.9122 53.3575H55.6424V39.9559C64.0424 38.8649 70.6319 37.5014 76.5784 35.0248C76.996 34.8508 77.4099 34.6716 77.8206 34.4869ZM79.7049 29.0567C83.2938 27.0329 86.7739 24.4079 90.5643 20.8961C82.9626 12.7495 72.6707 7.14588 61.1038 5.50069C68.9945 12.4185 74.0871 18.4245 79.7049 29.0567ZM55.6424 6.08975C64.9212 13.8718 70.176 19.5966 76.1337 30.8597C75.7718 31.022 75.4075 31.1794 75.0405 31.3322C69.6883 33.5613 63.6545 34.8597 55.6424 35.9216V6.08975ZM17.5848 20.737C25.265 12.5775 35.6568 6.99928 47.3205 5.44218C39.3417 12.4285 34.2221 18.4703 28.5461 29.2591C24.9856 27.1983 21.4672 24.4688 17.5848 20.737ZM33.2719 31.6056C32.8791 31.441 32.4889 31.2704 32.1006 31.0935C37.8754 20.12 42.9616 14.3818 51.6424 6.99584V35.9263C44.1572 34.9512 38.4451 33.7737 33.2719 31.6056Z" fill="url(#paint0_linear_9_73)"/>
<defs>
<linearGradient id="paint0_linear_9_73" x1="54" y1="0.882568" x2="54" y2="109.142" gradientUnits="userSpaceOnUse">
<stop offset="0.145833" stop-color="white"/>
<stop offset="0.505208" stop-color="#006CB5"/>
<stop offset="0.744792" stop-color="#E31E25"/>
</linearGradient>
</defs>
</svg>
